<svg width="32" height="32" viewBox="0 0 32 32" fill="none" xmlns="http://www.w3.org/2000/svg">
<rect width="32" height="32" fill="#1E1E1E"/>
<g clip-path="url(#clip0_0_1)">
<g clip-path="url(#clip1_0_1)">
<g clip-path="url(#clip2_0_1)">
<g clip-path="url(#clip3_0_1)">
<rect width="1440" height="1800" transform="translate(-257 -269)" fill="white"/>
<path fill-rule="evenodd" clip-rule="evenodd" d="M511.656 256.92V256.92L511.81 257.408L512.273 257.906L513.054 258.423L514.167 258.969L515.63 259.555L517.47 260.193L519.72 260.898L522.42 261.686L525.618 262.573L529.373 263.582L533.755 264.737L538.845 266.068L544.737 267.609L551.541 269.401L559.381 271.491L568.402 273.934L578.764 276.797L590.647 280.153L604.246 284.09L619.773 288.706L637.449 294.109L657.496 300.421L680.13 307.768L705.538 316.282L733.862 326.093L765.172 337.315L799.431 350.042L836.464 364.325L875.916 380.154L917.223 397.444L959.588 416.008L1001.97 435.549L1043.12 455.645L1081.58 475.757L1115.83 495.245L1144.34 513.403L1165.72 529.505L1178.85 542.868L1183 552.909L1177.9 559.204L1163.77 561.527L1141.32 559.87L1111.65 554.437L1076.16 545.615L1036.4 533.931L993.926 519.996L950.239 504.449L906.642 487.912L864.217 470.95L823.791 454.046L785.948 437.588L751.052 421.871L719.275 407.098L690.642 393.398L665.069 380.831L642.392 369.411L622.401 359.111L604.86 349.882L589.526 341.656L576.159 334.356L564.533 327.903L554.437 322.217L545.68 317.223L538.091 312.848L531.52 309.029L525.835 305.706L520.921 302.828L516.678 300.348L513.023 298.226L509.883 296.43L507.195 294.928L504.909 293.698L502.979 292.719L501.369 291.976L500.05 291.458L498.997 291.156L498.191 291.066L497.617 291.188L497.263 291.524L497.125 292.08L497.198 292.868L497.482 293.901L497.983 295.198L498.708 296.783L499.667 298.686L500.877 300.943L502.356 303.597L504.128 306.7L506.222 310.312L508.672 314.505L511.517 319.362L514.802 324.982L518.579 331.479L522.907 338.982L527.849 347.64L533.477 357.624L539.866 369.122L547.095 382.342L555.244 397.512L564.39 414.869L574.601 434.658L585.93 457.115L598.404 482.452L612.015 510.839L626.705 542.367L642.353 577.022L658.76 614.643L675.64 654.884L692.613 697.181L709.202 740.723L724.848 784.451L738.935 827.073L750.821 867.116L759.891 903.009L765.61 933.195L767.577 956.265L765.574 971.088L759.59 976.925L749.835 973.508L736.718 961.068L720.811 940.306L702.791 912.315L683.384 878.466L663.299 840.279L643.182 799.291L623.581 756.954L604.928 714.543L587.529 673.116L571.58 633.49L557.175 596.247L544.326 561.756L532.987 530.206L523.069 501.643L514.457 476.006L507.022 453.156L500.633 432.909L495.162 415.051L490.489 399.36L486.501 385.614L483.102 373.602L480.204 363.125L477.729 354.002L475.614 346.072L473.8 339.191L472.241 333.23L470.895 328.08L469.727 323.644L468.707 319.841L467.811 316.601L467.017 313.863L466.306 311.579L465.662 309.707L465.072 308.215L464.524 307.075L464.005 306.268L463.506 305.78L463.017 305.602L462.529 305.731L462.033 306.169L461.518 306.925L460.975 308.01L460.392 309.445L459.758 311.254L459.059 313.47L458.279 316.132L457.401 319.289L456.402 322.998L455.26 327.328L453.944 332.358L452.421 338.183L450.651 344.91L448.587 352.664L446.175 361.585L443.348 371.835L440.034 383.59L436.147 397.046L431.59 412.413L426.254 429.91L420.02 449.763L412.76 472.184L404.344 497.367L394.642 525.457L383.537 556.531L370.933 590.563L356.776 627.387L341.069 666.667L323.891 707.855L305.42 750.174L285.945 792.603L265.876 833.899L245.744 872.635L226.183 907.278L207.894 936.3L191.603 958.295L178 972.118L167.677 977L161.073 972.632L158.431 959.203L159.775 937.379L164.919 908.237L173.489 873.151L184.966 833.663L198.744 791.35L214.185 747.706L230.663 704.057L247.609 661.501L264.532 620.888L281.036 582.821L296.82 547.679L311.672 515.649L325.461 486.766L338.118 460.952L349.628 438.05L360.014 417.852L369.326 400.124L377.628 384.622L384.998 371.106L391.516 359.348L397.259 349.137L402.306 340.279L406.727 332.603L410.588 325.955L413.948 320.203L416.86 315.231L419.37 310.939L421.518 307.239L423.34 304.06L424.864 301.338L426.115 299.021L427.113 297.064L427.874 295.43L428.41 294.089L428.729 293.015L428.835 292.19L428.73 291.598L428.412 291.227L427.873 291.072L427.105 291.128L426.092 291.395L424.817 291.879L423.256 292.585L421.379 293.525L419.152 294.714L416.531 296.171L413.467 297.919L409.898 299.987L405.755 302.407L400.954 305.219L395.399 308.468L388.977 312.204L381.56 316.486L373 321.377L363.13 326.948L351.761 333.274L338.686 340.433L323.681 348.507L306.508 357.571L286.924 367.696L264.689 378.936L239.59 391.319L211.452 404.842L180.178 419.451L145.771 435.029L108.379 451.386L68.3311 468.243L26.1747 485.226L-17.3011 501.866L-61.0559 517.611L-103.815 531.846L-144.117 543.931L-180.396 553.247L-211.089 559.25L-234.77 561.527L-250.281 559.843L-256.849 554.171L-254.168 544.703L-242.428 531.834L-222.294 516.124L-194.833 498.245L-161.399 478.92L-123.502 458.863L-82.6861 438.725L-40.4094 419.065L2.03429 400.321L43.5695 382.814L83.3603 366.743L120.807 352.212L155.524 339.24L187.309 327.783L216.107 317.755L241.971 309.042L265.035 301.518L285.48 295.051L303.519 289.511L319.373 284.777L333.265 280.739L345.407 277.296L355.999 274.36L365.222 271.855L373.241 269.712L380.201 267.877L386.23 266.299L391.441 264.937L395.93 263.755L399.78 262.725L403.063 261.82L405.839 261.018L408.157 260.301L410.06 259.653L411.582 259.059L412.749 258.507L413.581 257.987L414.095 257.487L414.297 256.997L414.193 256.51L413.779 256.014L413.049 255.501L411.991 254.96L410.585 254.381L408.806 253.752L406.625 253.058L404 252.286L400.885 251.416L397.222 250.427L392.945 249.297L387.974 247.996L382.217 246.491L375.566 244.743L367.9 242.704L359.077 240.321L348.94 237.53L337.313 234.258L324.001 230.419L308.795 225.919L291.477 220.648L271.822 214.49L249.614 207.317L224.659 198.997L196.806 189.401L165.972 178.41L132.175 165.928L95.565 151.894L56.4666 136.308L15.4079 119.241L-26.8519 100.862L-69.3125 81.4521L-110.746 61.4115L-149.738 41.2615L-184.762 21.6279L-214.283 3.20956L-236.882 -13.2678L-251.389 -27.1092L-257 -37.7122L-253.369 -44.6243L-240.643 -47.5863L-219.455 -46.555L-190.851 -41.7017L-156.185 -33.3873L-116.993 -22.1196L-74.8506 -8.49978L-31.2645 6.83296L12.4249 23.2515L55.0992 40.1802L95.889 57.1222L134.172 73.6732L169.554 89.5244L201.833 104.458L230.963 118.335L257.014 131.084L280.14 142.686L300.543 153.161L318.458 162.556L334.127 170.937L347.791 178.379L359.68 184.962L370.007 190.765L378.965 195.865L386.73 200.334L393.453 204.237L399.272 207.635L404.302 210.581L408.645 213.122L412.388 215.298L415.606 217.144L418.362 218.691L420.71 219.963L422.694 220.981L424.352 221.76L425.716 222.314L426.809 222.65L427.654 222.773L428.264 222.685L428.652 222.384L428.825 221.863L428.785 221.113L428.535 220.121L428.069 218.867L427.38 217.33L426.459 215.479L425.291 213.281L423.856 210.693L422.133 207.666L420.092 204.14L417.701 200.045L414.922 195.3L411.71 189.808L408.015 183.459L403.779 176.126L398.939 167.662L393.425 157.902L387.163 146.659L380.073 133.727L372.076 118.884L363.094 101.891L353.056 82.506L341.908 60.4894L329.617 35.6232L316.184 7.73086L301.66 -23.2946L286.154 -57.458L269.851 -94.6245L253.023 -134.48L236.035 -176.497L219.35 -219.906L203.513 -263.685L189.135 -306.578L176.856 -347.136L167.299 -383.795L161.016 -414.99L158.431 -439.279L159.796 -455.476L165.154 -462.774L174.331 -460.828L186.947 -449.79L202.453 -430.29L220.184 -403.364L239.419 -370.348L259.442 -332.748L279.594 -292.106L299.308 -249.892L318.136 -207.417L335.75 -165.772L351.939 -125.815L366.593 -88.1621L379.688 -53.2155L391.262 -21.1908L401.399 7.84602L410.211 33.9417L417.825 57.2237L424.371 77.8717L429.98 96.0952L434.773 112.116L438.863 126.157L442.349 138.432L445.322 149.142L447.86 158.468L450.028 166.578L451.886 173.618L453.483 179.717L454.861 184.99L456.055 189.533L457.097 193.432L458.011 196.758L458.82 199.572L459.543 201.925L460.197 203.86L460.794 205.411L461.349 206.606L461.871 207.465L462.373 208.003L462.862 208.23L463.35 208.15L463.844 207.761L464.356 207.057L464.894 206.025L465.469 204.647L466.094 202.9L466.782 200.751L467.548 198.163L468.409 195.089L469.387 191.472L470.505 187.246L471.791 182.333L473.278 176.642L475.006 170.067L477.019 162.485L479.373 153.76L482.128 143.733L485.359 132.23L489.149 119.059L493.593 104.011L498.797 86.8677L504.88 67.4054L511.967 45.4067L520.19 20.675L529.679 -6.94496L540.554 -37.5426L552.914 -71.11L566.822 -107.508L582.285 -146.427L599.238 -187.357L617.519 -229.558L636.859 -272.048L656.866 -313.615L677.027 -352.86L696.726 -388.259L715.266 -418.274L731.923 -441.473L745.997 -456.661L756.876 -463L764.094 -460.106L767.375 -448.087L766.658 -427.537L762.098 -399.475L754.043 -365.235L742.99 -326.342L729.535 -284.375L714.317 -240.849L697.964 -197.121L681.057 -154.328L664.102 -113.359L647.508 -74.856L631.593 -39.2309L616.582 -6.69898L602.618 22.6824L589.779 48.9761L578.086 72.3289L567.524 92.9424L558.045 111.048L549.587 126.888L542.074 140.704L535.426 152.727L529.564 163.172L524.411 172.233L519.895 180.087L515.949 186.889L512.513 192.775L509.533 197.864L506.962 202.259L504.759 206.048L502.887 209.305L501.317 212.096L500.024 214.475L498.987 216.486L498.189 218.17L497.618 219.556L497.265 220.67L497.125 221.534L497.196 222.163L497.48 222.568L497.983 222.757L498.714 222.735L499.687 222.501L500.919 222.052L502.433 221.382L504.257 220.48L506.426 219.332L508.98 217.919L511.97 216.219L515.454 214.205L519.501 211.843L524.191 209.096L529.619 205.92L535.894 202.265L543.143 198.075L551.511 193.285L561.161 187.827L572.278 181.627L585.066 174.605L599.747 166.683L616.559 157.781L635.743 147.829L657.54 136.77L682.171 124.569L709.815 111.226L740.587 96.7842L774.501 81.3495L811.435 65.1002L851.09 48.3005L892.957 31.3089L936.286 14.5791L980.076 -1.3482L1023.09 -15.8665L1063.88 -28.3367L1100.91 -38.1325L1132.59 -44.6948L1157.48 -47.5861L1174.35 -46.5402L1182.38 -41.4961L1181.17 -32.6112L1170.84 -20.2499L1151.98 -4.94954L1125.6 12.6315L1093.02 31.7745L1055.73 51.7613L1015.28 71.9261L973.142 91.6952L930.647 110.609L888.905 128.33L848.79 144.638L810.939 159.418L775.77 172.637L743.51 184.331L714.238 194.579L687.914 203.493L664.415 211.197L643.567 217.824L625.159 223.504L608.972 228.358L594.782 232.5L582.375 236.031L571.549 239.042L562.119 241.612L553.919 243.808L546.799 245.689L540.63 247.305L535.296 248.699L530.698 249.907L526.751 250.96L523.382 251.883L520.529 252.7L518.141 253.429L516.174 254.088L514.594 254.689L513.372 255.247L512.487 255.772L511.923 256.274L511.672 256.765L511.656 256.92Z" fill="#A7F0EB" fill-opacity="0.6"/>
<g clip-path="url(#clip4_0_1)">
<path d="M28.9267 14.6667C28.9261 13.1683 28.4913 11.7021 27.6749 10.4456C26.8585 9.18911 25.6956 8.19608 24.3267 7.58667C23.842 6.50114 23.1141 5.5417 22.1992 4.78265C21.2843 4.0236 20.2069 3.4853 19.0506 3.20943C17.8943 2.93356 16.6899 2.92752 15.5309 3.19177C14.3718 3.45603 13.2891 3.9835 12.3667 4.73334H12.1667C11.0833 4.73436 10.0122 4.9624 9.0224 5.40277C8.03259 5.84313 7.14605 6.48604 6.41994 7.29003C5.69383 8.09403 5.14427 9.04127 4.80669 10.0707C4.46911 11.1001 4.35101 12.1888 4.46 13.2667C3.80748 14.2052 3.37094 15.2767 3.18177 16.404C2.99259 17.5313 3.05547 18.6866 3.36588 19.7867C3.6763 20.8869 4.22654 21.9046 4.97707 22.7668C5.7276 23.629 6.65979 24.3143 7.70666 24.7733C8.22352 25.7871 8.95772 26.6743 9.8569 27.3716C10.7561 28.069 11.7981 28.5593 12.9085 28.8076C14.019 29.056 15.1706 29.0562 16.2812 28.8082C17.3917 28.5603 18.4339 28.0704 19.3333 27.3733H19.9067C21.9607 27.3769 23.9322 26.5652 25.3883 25.1166C26.8445 23.6679 27.6663 21.7007 27.6733 19.6467C27.6733 19.4133 27.6733 19.1867 27.6333 18.98C28.4861 17.7039 28.9366 16.2014 28.9267 14.6667Z" stroke="black" stroke-linecap="round" stroke-linejoin="round"/>
<path d="M4.46001 13.2667C5.09334 16.82 6.30001 17.84 7.25334 18.8C8.20667 19.76 11.22 22.3 11.92 23.3267M27.6333 18.96C26.9667 15.4067 25.7933 14.38 24.84 13.4267C23.8867 12.4733 20.8733 9.92001 20.1733 8.89334" stroke="black" stroke-linecap="round" stroke-linejoin="round"/>
<path d="M19.3333 27.3733C22.0933 25.04 22.38 23.4867 22.7267 22.18C23.0733 20.8733 23.32 18.5333 24.3133 15.8733C25.3559 13.2141 25.3559 10.2592 24.3133 7.6M12.3667 4.73334C9.60667 7.06667 9.64001 8.88667 9.29334 10.1933C8.91336 12.3302 8.38315 14.4377 7.70667 16.5C6.66412 19.1592 6.66412 22.1141 7.70667 24.7733" stroke="black" stroke-linecap="round" stroke-linejoin="round"/>
<path d="M25.64 20.8267C22.5 23.0533 20.6867 22.6667 18.3067 23.4933C16.8933 23.9667 16.0267 24.9533 11.68 25.24C8.82667 25.4333 7.73334 24.8 7.73334 24.8M6.39334 11.5467C9.53334 9.32666 11.3467 9.70666 13.7267 8.88C15.14 8.40666 16.0067 7.42 20.3533 7.13333C23.2067 6.94666 24.3 7.57333 24.3 7.57333" stroke="black" stroke-linecap="round" stroke-linejoin="round"/>
<path d="M18.12 7.41334C17.0733 6.30667 14.7533 4.74667 12.3667 4.74667M13.8667 24.9667C15.3037 26.4534 17.2664 27.3174 19.3333 27.3733" stroke="black" stroke-linecap="round" stroke-linejoin="round"/>
</g>
</g>
</g>
</g>
</g>
<mask id="path-7-inside-1_0_1" fill="white">
<rect x="-257" y="-463" width="2880" height="1440" rx="5"/>
</mask>
<rect x="-257" y="-463" width="2880" height="1440" rx="5" stroke="#42F5FF" stroke-width="18.368" mask="url(#path-7-inside-1_0_1)"/>
<mask id="path-8-inside-2_0_1" fill="white">
<rect x="-257" y="-463" width="2880" height="1440" rx="5"/>
</mask>
<rect x="-257" y="-463" width="2880" height="1440" rx="5" stroke="#42F5FF" stroke-width="18.368" mask="url(#path-8-inside-2_0_1)"/>
<mask id="path-9-inside-3_0_1" fill="white">
<rect x="-257" y="-463" width="2880" height="1440" rx="5"/>
</mask>
<rect x="-257" y="-463" width="2880" height="1440" rx="5" stroke="#42F5FF" stroke-width="18.368" mask="url(#path-9-inside-3_0_1)"/>
<mask id="path-10-inside-4_0_1" fill="white">
<rect x="-257" y="-463" width="2880" height="1440" rx="5"/>
</mask>
<rect x="-257" y="-463" width="2880" height="1440" rx="5" stroke="#42F5FF" stroke-width="18.368" mask="url(#path-10-inside-4_0_1)"/>
<mask id="path-11-inside-5_0_1" fill="white">
<rect x="-257" y="-463" width="2880" height="1440" rx="5"/>
</mask>
<rect x="-257" y="-463" width="2880" height="1440" rx="5" stroke="#42F5FF" stroke-width="18.368" mask="url(#path-11-inside-5_0_1)"/>
<mask id="path-12-inside-6_0_1" fill="white">
<rect x="-257" y="-463" width="2880" height="1440" rx="5"/>
</mask>
<rect x="-257" y="-463" width="2880" height="1440" rx="5" stroke="#42F5FF" stroke-width="18.368" mask="url(#path-12-inside-6_0_1)"/>
<defs>
<clipPath id="clip0_0_1">
<rect width="1440" height="2700" fill="white" transform="translate(-257 -1169)"/>
</clipPath>
<clipPath id="clip1_0_1">
<rect width="1440" height="2700" fill="white" transform="translate(-257 -1169)"/>
</clipPath>
<clipPath id="clip2_0_1">
<rect width="1440" height="2634" fill="white" transform="translate(-257 -1103)"/>
</clipPath>
<clipPath id="clip3_0_1">
<rect width="1440" height="1800" fill="white" transform="translate(-257 -269)"/>
</clipPath>
<clipPath id="clip4_0_1">
<rect width="926" height="32" fill="white"/>
</clipPath>
</defs>
</svg>
