<svg width="32" height="32" viewBox="0 0 32 32" fill="none" xmlns="http://www.w3.org/2000/svg">
<g clip-path="url(#clip0_15_32)">
<path d="M12.6405 6.9655C12.548 7.3745 12.0615 10.2735 12.818 11.2855C13.3285 11.969 13.3805 11.8565 13.311 11.4585C13.2415 11.0565 13.5315 10.3145 13.508 10.685C13.485 11.0565 13.576 11.3355 13.691 10.981C13.8055 10.6325 14.1195 10.1365 13.988 10.6445C13.855 11.1505 13.8575 11.932 14.1245 11.94C14.389 11.944 14.521 11.681 14.5825 11.3995C15.2775 8.2815 12.749 6.4885 12.6405 6.9655ZM4.158 21.8155C4.07314 21.7042 3.94822 21.6303 3.80977 21.6096C3.67132 21.5888 3.53025 21.6229 3.4165 21.7045C3.181 21.8745 2.886 22.3775 3.0615 22.6085C3.236 22.84 3.8125 22.712 4.049 22.5415C4.283 22.372 4.333 22.046 4.158 21.8155ZM6.7665 23.848C6.0215 24.554 5.075 25.005 4.0345 25.3285C4.5883 25.3379 5.13886 25.2422 5.657 25.0465C6.18154 24.8464 6.66301 24.5479 7.0755 24.167C7.8885 23.402 8.417 22.3495 8.47 21.2775C8.2765 21.777 8.0255 22.237 7.75 22.673C7.47162 23.1035 7.1413 23.4982 6.7665 23.848ZM3.505 20.964C3.7155 20.8845 4.744 20.6185 4.83 21.7265C4.83 21.7265 4.8885 22.223 5.0185 21.7305C5.1475 21.2355 4.8395 19.958 3.4915 20.8015C3.2515 20.951 3.2945 21.0445 3.505 20.964Z" fill="black"/>
<path d="M30.9705 23.2865L30.113 21.42C29.746 20.621 29.246 19.925 28.7015 19.3275L29.4935 19.382C29.3554 19.0406 29.1756 18.7176 28.958 18.4205L29.1615 18.4425L28.4335 17.233C28.1995 16.844 27.921 16.502 27.626 16.1865L29.169 15.947C28.3299 15.665 27.5022 15.3499 26.688 15.0025L28.3335 15L30.508 14.9965L28.724 13.729C28.0965 13.283 27.4025 12.9095 26.6865 12.593L29.229 11.733C27.5845 11.63 25.9419 11.4978 24.302 11.3365L27.8265 10.635L31 10.003L27.8475 9.269C26.7362 9.01312 25.6088 8.83353 24.473 8.7315L26.879 7.536C22.847 7.2495 19.7945 8.005 17.8555 8.745C17.7869 8.47196 17.7126 8.2004 17.6325 7.9305C19.09 6.9525 21.681 5.799 26.0825 5.3785C21.4565 4.882 18.658 5.6035 17.08 6.3445C16.2865 4.36 15.447 3.292 15.447 3.292C15.0609 4.07222 14.7393 4.88276 14.4855 5.7155C13.606 4.692 12.736 4.17 12.6675 4.13L11.767 3.603L11.3705 4.5825C10.918 5.702 10.7805 7.188 10.7595 8.432L1 1L9.3485 12.411C7.708 14.328 5.311 16.776 3.6725 18.449C2.48 19.667 1.8455 20.3165 1.588 20.635C0.3905 22.111 2.391 24.832 3.307 25.9335L3.5395 26.213L3.8965 26.256C4.053 26.2745 4.5155 26.39 5.4295 27.052C5.65993 27.2174 5.93687 27.3054 6.2205 27.3035C6.832 27.3035 7.404 26.942 8.1285 26.4845C8.7825 26.072 9.523 25.604 10.238 25.468C12.512 25.032 14.1945 24.392 15.268 23.558C14.918 25.693 13.5045 28.348 12.403 29.385L10.6865 31H16.4455C18.209 24.583 16.4335 21.298 15.8335 20.718C15.8133 20.1792 15.6463 19.6563 15.3505 19.2055C15.696 20.058 15.69 21.025 15.268 21.778C14.8435 22.535 14.0825 23.058 13.2715 23.432C12.456 23.8115 11.5695 24.0635 10.6755 24.2715C9.35 24.58 8.4785 25.116 8.1125 25.405L8.1135 25.4045C7.3265 25.884 6.6625 26.3735 6.2205 26.3735C6.1267 26.3761 6.03457 26.3482 5.958 26.294C5.5965 26.0325 4.7125 25.417 4.003 25.332C4.003 25.332 1.452 22.264 2.2925 21.2285C2.9475 20.4185 7.495 16.017 10.127 12.918C10.538 14.2385 12.2025 15.2765 13.8825 16.0125C13.316 16.457 12.078 17.2175 10.526 16.893C9.9705 16.777 9.1355 16.623 8.687 17.574C8.687 17.574 9.103 17.2605 9.479 17.337C9.479 17.337 8.9645 17.8575 9.351 18.667C9.351 18.667 9.769 17.687 10.4875 17.627C10.4875 17.627 9.9965 18.3395 10.624 18.9895C10.624 18.9895 10.756 17.998 11.6875 17.7005C11.6875 17.7005 11.557 18.2205 12.0115 18.8415C12.0115 18.8415 11.871 17.9455 12.5085 17.5095C13.068 17.1265 13.6825 16.8955 14.069 16.0935C15.9805 16.9065 17.852 17.328 17.852 17.328C12.945 14.759 11.695 9.6505 11.685 9.6085C11.637 8.3475 11.6635 6.3005 12.2145 4.938C12.2145 4.938 14.313 6.17 15.134 8.674C15.1325 8.7275 15.1245 9.3095 15.416 9.9515C15.416 9.9515 18.513 18.314 24.896 20.6765C20.277 16.184 19.878 13.1225 18.022 10.857C21.3835 12.5405 26.8105 18.1745 26.879 31H29.244L28.7425 29.8895C28.8985 29.958 29.0535 30.0205 29.208 30.0685C29.208 30.0685 28.913 29.726 28.4635 28.996L28.665 29.003L30.735 29.0745L29.114 27.7595C28.796 27.5015 28.472 27.0365 28.1635 26.4835L29.494 26.8735C29.3177 26.4695 29.1343 26.0686 28.944 25.671L29.925 26.315L29.425 24.602C29.7605 24.357 30.4875 24.72 30.4875 24.72C30.2455 23.833 29.2625 22.843 28.7445 22.5475C28.6517 22.3453 28.5537 22.1456 28.4505 21.9485L29.1785 22.3345L30.9705 23.2865ZM4.266 4.6865L3.244 3.2895L4.5065 4.251L4.266 4.6865ZM5.4975 6.3695L6.1435 5.497L7.8465 6.7935L6.6785 7.9845L5.4975 6.3695ZM8.9045 11.0265L7.8135 9.536L9.6195 8.144L10.7575 9.0105C10.7615 9.36 10.772 9.6755 10.786 9.944L8.9045 11.0265ZM18.0975 9.8625C18.0875 9.809 18.079 9.751 18.068 9.6975C19.4396 9.44199 20.8318 9.31411 22.227 9.3155C23.862 9.3155 25.7035 9.4865 27.695 9.95L20.572 11.369C19.8043 10.7786 18.9745 10.2734 18.0975 9.8625ZM21.7315 12.3555C21.5261 12.1616 21.3151 11.9738 21.0985 11.7925C23.0135 12.0695 26.129 12.7375 28.332 14.3025L23.4585 14.3105C22.94 13.6105 22.3622 12.9564 21.7315 12.3555ZM23.59 14.4875C24.6165 14.8355 26.7355 15.7455 27.8505 17.5995L25.2625 17.319C24.7914 16.3267 24.2316 15.379 23.59 14.4875ZM28.6875 28.306L27.745 28.2735C27.7245 27.8441 27.6968 27.415 27.662 26.9865C27.9845 27.5405 28.3315 28.017 28.6875 28.306ZM28.8045 24.75L27.252 23.73C27.0434 22.5284 26.7552 21.3419 26.3895 20.1785C26.8955 20.725 28.154 22.2715 28.8045 24.75ZM26.3455 20.047C26.0788 19.2189 25.7634 18.4074 25.401 17.6165C26.4735 18.2185 28.5145 19.586 29.4935 21.7165L26.3455 20.047Z" fill="black"/>
</g>
<defs>
<clipPath id="clip0_15_32">
<rect width="32" height="32" fill="white"/>
</clipPath>
</defs>
</svg>
