<svg width="88" height="57" viewBox="0 0 88 57" fill="none" xmlns="http://www.w3.org/2000/svg">
<path d="M44.0011 34.0834C49.9843 34.0834 54.8344 38.7469 54.8344 44.5C54.8344 50.2532 49.9843 54.9167 44.0011 54.9167C42.0866 54.9197 40.2058 54.4325 38.5519 53.5052L33.1721 54.9167L34.6367 49.7417C33.6716 48.151 33.1645 46.3417 33.1677 44.5C33.1677 38.7469 38.0178 34.0834 44.0011 34.0834ZM40.3091 39.6042L40.0924 39.6125C39.9521 39.6208 39.8151 39.6562 39.6894 39.7167C39.5719 39.7807 39.4646 39.8607 39.3709 39.9542C39.2409 40.0719 39.1672 40.174 39.0882 40.273C38.6875 40.7739 38.4717 41.3889 38.475 42.0209C38.4772 42.5313 38.6158 43.0282 38.8325 43.4927C39.2756 44.4323 40.0047 45.4271 40.9667 46.349C41.1985 46.5709 41.426 46.7938 41.6708 47.0011C42.8662 48.013 44.2906 48.7428 45.8308 49.1323L46.4462 49.223C46.6466 49.2334 46.847 49.2188 47.0485 49.2094C47.364 49.1938 47.6721 49.1116 47.9509 48.9688C48.0928 48.8985 48.2312 48.8221 48.3658 48.7396C48.3658 48.7396 48.4124 48.7105 48.5012 48.6459C48.6475 48.5417 48.7374 48.4677 48.8587 48.3459C48.9487 48.2563 49.0267 48.1511 49.0862 48.0313C49.1707 47.8615 49.2552 47.5375 49.2899 47.2677C49.3159 47.0615 49.3083 46.949 49.3051 46.8792C49.3007 46.7677 49.2043 46.6521 49.0992 46.6032L48.4687 46.3313C48.4687 46.3313 47.5262 45.9365 46.9499 45.6844C46.8896 45.6591 46.825 45.6446 46.7592 45.6417C46.6851 45.6344 46.6102 45.6424 46.5396 45.6652C46.469 45.688 46.4042 45.7251 46.3497 45.774C46.3443 45.7719 46.2717 45.8313 45.4885 46.7438C45.4435 46.8019 45.3816 46.8458 45.3106 46.8699C45.2396 46.894 45.1627 46.8973 45.0898 46.8792C45.0193 46.861 44.9501 46.838 44.8829 46.8105C44.7486 46.7563 44.702 46.7355 44.6099 46.698C43.9881 46.4371 43.4125 46.0846 42.9037 45.6532C42.7672 45.5386 42.6404 45.4136 42.5104 45.2927C42.0842 44.9003 41.7128 44.4563 41.4054 43.9719L41.3415 43.873C41.2956 43.8065 41.2585 43.7347 41.231 43.6594C41.1898 43.5063 41.2971 43.3834 41.2971 43.3834C41.2971 43.3834 41.5603 43.1063 41.6827 42.9563C41.8019 42.8105 41.9027 42.6688 41.9677 42.5677C42.0955 42.3698 42.1356 42.1667 42.0684 42.0094C41.7651 41.2969 41.4509 40.5875 41.1281 39.8834C41.0642 39.7438 40.8746 39.6438 40.7023 39.624C40.6438 39.6177 40.5853 39.6115 40.5268 39.6073C40.3813 39.6004 40.2356 39.6018 40.0902 39.6115L40.308 39.6032L40.3091 39.6042Z" fill="black"/>
<path d="M22.9166 44.5C22.9166 38.75 18.25 34.0834 12.5 34.0834C6.74998 34.0834 2.08331 38.75 2.08331 44.5C2.08331 49.5417 5.66665 53.7396 10.4166 54.7084V47.625H8.33331V44.5H10.4166V41.8959C10.4166 39.8855 12.0521 38.25 14.0625 38.25H16.6666V41.375H14.5833C14.0104 41.375 13.5416 41.8438 13.5416 42.4167V44.5H16.6666V47.625H13.5416V54.8646C18.8021 54.3438 22.9166 49.9063 22.9166 44.5Z" fill="black"/>
<path d="M76.5708 34.0844C77.3309 34.0815 78.0911 34.0891 78.851 34.1073L79.0531 34.1146C79.2864 34.123 79.5166 34.1334 79.7948 34.1459C80.9031 34.198 81.6593 34.373 82.3229 34.6302C83.0104 34.8948 83.5896 35.2532 84.1687 35.8323C84.6983 36.3528 85.1081 36.9823 85.3698 37.6771C85.6271 38.3407 85.8021 39.098 85.8541 40.2063C85.8666 40.4834 85.8771 40.7146 85.8854 40.948L85.8916 41.15C85.9101 41.9096 85.9181 42.6694 85.9156 43.4292L85.9166 44.2063V45.5709C85.9192 46.331 85.9112 47.0912 85.8927 47.8511L85.8864 48.0532C85.8781 48.2865 85.8677 48.5167 85.8552 48.7948C85.8031 49.9032 85.626 50.6594 85.3698 51.323C85.109 52.0185 84.699 52.6486 84.1687 53.1688C83.6478 53.6983 83.018 54.1081 82.3229 54.3698C81.6593 54.6271 80.9031 54.8021 79.7948 54.8542C79.5166 54.8667 79.2864 54.8771 79.0531 54.8855L78.851 54.8917C78.0911 54.9102 77.3309 54.9182 76.5708 54.9157L75.7937 54.9167H74.4302C73.67 54.9193 72.9099 54.9113 72.15 54.8927L71.9479 54.8865C71.7006 54.8775 71.4534 54.8671 71.2062 54.8552C70.0979 54.8032 69.3416 54.6261 68.6771 54.3698C67.9819 54.1087 67.3523 53.6988 66.8323 53.1688C66.3021 52.6482 65.8919 52.0183 65.6302 51.323C65.3729 50.6594 65.1979 49.9032 65.1458 48.7948C65.1342 48.5477 65.1238 48.3004 65.1146 48.0532L65.1093 47.8511C65.0901 47.0912 65.0815 46.331 65.0833 45.5709V43.4292C65.0804 42.6694 65.088 41.9096 65.1062 41.15L65.1135 40.948C65.1218 40.7146 65.1323 40.4834 65.1448 40.2063C65.1968 39.0969 65.3718 38.3417 65.6291 37.6771C65.891 36.9819 66.302 36.3526 66.8333 35.8334C67.353 35.3029 67.9822 34.8923 68.6771 34.6302C69.3416 34.373 70.0968 34.198 71.2062 34.1459L71.9479 34.1146L72.15 34.1094C72.9095 34.0902 73.6693 34.0815 74.4291 34.0834L76.5708 34.0844ZM75.5 39.2927C74.8099 39.283 74.1247 39.4105 73.4843 39.6678C72.8439 39.9252 72.2611 40.3072 71.7696 40.7918C71.2781 41.2763 70.8879 41.8537 70.6215 42.4904C70.3552 43.1271 70.218 43.8104 70.218 44.5006C70.218 45.1907 70.3552 45.874 70.6215 46.5107C70.8879 47.1474 71.2781 47.7248 71.7696 48.2094C72.2611 48.6939 72.8439 49.076 73.4843 49.3333C74.1247 49.5906 74.8099 49.7181 75.5 49.7084C76.8813 49.7084 78.2061 49.1596 79.1828 48.1829C80.1596 47.2061 80.7083 45.8814 80.7083 44.5C80.7083 43.1187 80.1596 41.7939 79.1828 40.8172C78.2061 39.8404 76.8813 39.2927 75.5 39.2927ZM75.5 41.3761C75.9151 41.3684 76.3276 41.4436 76.7133 41.5971C77.099 41.7507 77.4503 41.9796 77.7466 42.2704C78.0429 42.5612 78.2783 42.9082 78.439 43.291C78.5997 43.6738 78.6825 44.0848 78.6825 44.5C78.6826 44.9152 78.5999 45.3262 78.4394 45.7091C78.2788 46.092 78.0436 46.439 77.7474 46.73C77.4512 47.0209 77.1 47.2499 76.7143 47.4036C76.3286 47.5573 75.9161 47.6325 75.501 47.625C74.6722 47.625 73.8774 47.2958 73.2913 46.7097C72.7053 46.1237 72.376 45.3288 72.376 44.5C72.376 43.6712 72.7053 42.8764 73.2913 42.2903C73.8774 41.7043 74.6722 41.375 75.501 41.375L75.5 41.3761ZM80.9687 37.7302C80.6327 37.7437 80.3149 37.8867 80.0819 38.1292C79.8488 38.3717 79.7187 38.695 79.7187 39.0313C79.7187 39.3676 79.8488 39.6909 80.0819 39.9334C80.3149 40.1759 80.6327 40.3189 80.9687 40.3323C81.3141 40.3323 81.6452 40.1951 81.8894 39.951C82.1336 39.7068 82.2708 39.3756 82.2708 39.0302C82.2708 38.6849 82.1336 38.3537 81.8894 38.1095C81.6452 37.8653 81.3141 37.7282 80.9687 37.7282V37.7302Z" fill="black"/>
</svg>
