<svg width="60" height="60" viewBox="0 0 60 60" fill="none" xmlns="http://www.w3.org/2000/svg">
<g id="logos:whatsapp-icon" clip-path="url(#clip0_4_822)">
<path id="Vector" d="M1.28038 29.641C1.27897 34.6821 2.60647 39.6045 5.13069 43.9431L1.03897 58.7668L16.3277 54.7891C20.5564 57.0733 25.2943 58.2702 30.109 58.2705H30.1216C46.0158 58.2705 58.954 45.4373 58.9608 29.6635C58.9638 22.0201 55.9666 14.8326 50.5212 9.42517C45.0766 4.01819 37.8356 1.03889 30.1205 1.0354C14.2244 1.0354 1.28717 13.868 1.28061 29.641" fill="url(#paint0_linear_4_822)"/>
<path id="Vector_2" d="M0.250781 29.6316C0.249141 34.8542 1.62422 39.9526 4.23844 44.4465L0 59.8016L15.837 55.6814C20.2005 58.0421 25.1135 59.2867 30.1127 59.2886H30.1256C46.59 59.2886 59.993 45.9937 60 29.6553C60.0028 21.7372 56.8978 14.2914 51.2578 8.69023C45.6171 3.08977 38.1171 0.00325581 30.1256 0C13.6584 0 0.257344 13.293 0.250781 29.6316ZM9.68203 43.6726L9.0907 42.7412C6.60492 38.8193 5.29289 34.2872 5.29477 29.6335C5.30016 16.0533 16.4386 5.00465 30.135 5.00465C36.7678 5.00744 43.0013 7.57302 47.6897 12.2279C52.3779 16.8833 54.9577 23.0716 54.956 29.6535C54.9499 43.2337 43.8112 54.2837 30.1256 54.2837H30.1158C25.6596 54.2814 21.2892 53.094 17.4778 50.85L16.5708 50.3163L7.17281 52.7612L9.68203 43.6723V43.6726Z" fill="url(#paint1_linear_4_822)"/>
<path id="Vector_3" d="M22.6589 17.2438C22.0997 16.0105 21.5112 15.9856 20.9794 15.964C20.5439 15.9454 20.0461 15.9468 19.5487 15.9468C19.0509 15.9468 18.2421 16.1326 17.5584 16.8733C16.8741 17.6147 14.9456 19.4063 14.9456 23.0503C14.9456 26.6945 17.6205 30.2161 17.9934 30.7108C18.3668 31.2045 23.1574 38.9217 30.7446 41.8905C37.0502 44.3577 38.3334 43.867 39.7019 43.7433C41.0707 43.6201 44.1185 41.9522 44.7403 40.2226C45.3626 38.4933 45.3626 37.011 45.176 36.7012C44.9894 36.3926 44.4916 36.2073 43.7451 35.837C42.9984 35.4666 39.3286 33.6747 38.6444 33.4275C37.9601 33.1805 37.4625 33.0573 36.9647 33.7989C36.4669 34.5394 35.0374 36.2073 34.6017 36.7012C34.1665 37.1963 33.7308 37.258 32.9845 36.8875C32.2376 36.5159 29.8336 35.7347 26.9815 33.2117C24.7624 31.2484 23.2643 28.824 22.8288 28.0824C22.3934 27.3419 22.7822 26.9405 23.1565 26.5715C23.4919 26.2396 23.9032 25.7066 24.2768 25.2742C24.649 24.8417 24.7732 24.5331 25.0221 24.0391C25.2712 23.5447 25.1466 23.1122 24.9602 22.7417C24.7732 22.3712 23.3226 18.7082 22.6589 17.2438Z" fill="white"/>
</g>
<defs>
<linearGradient id="paint0_linear_4_822" x1="2897.13" y1="5774.18" x2="2897.13" y2="1.0354" gradientUnits="userSpaceOnUse">
<stop stop-color="#1FAF38"/>
<stop offset="1" stop-color="#60D669"/>
</linearGradient>
<linearGradient id="paint1_linear_4_822" x1="3000" y1="5980.16" x2="3000" y2="0" gradientUnits="userSpaceOnUse">
<stop stop-color="#F9F9F9"/>
<stop offset="1" stop-color="white"/>
</linearGradient>
<clipPath id="clip0_4_822">
<rect width="60" height="60" fill="white"/>
</clipPath>
</defs>
</svg>
