<svg width="36" height="32" viewBox="0 0 36 32" fill="none" xmlns="http://www.w3.org/2000/svg">
<rect width="36" height="32" fill="#1E1E1E"/>
<g id="Frame 21">
<g id="Frame" clip-path="url(#clip0_0_1)">
<g id="Frame_2" clip-path="url(#clip1_0_1)">
<g id="Frame_3" clip-path="url(#clip2_0_1)">
<g id="Templates" clip-path="url(#clip3_0_1)">
<rect width="1440" height="1800" transform="translate(-828 -269)" fill="white"/>
<path id="Vector" fill-rule="evenodd" clip-rule="evenodd" d="M-59.3437 256.92V256.92L-59.1902 257.408L-58.7269 257.906L-57.9457 258.423L-56.8332 258.969L-55.3697 259.555L-53.5296 260.193L-51.2799 260.898L-48.5804 261.686L-45.3822 262.573L-41.6266 263.582L-37.2446 264.737L-32.1549 266.068L-26.2631 267.609L-19.4595 269.401L-11.6187 271.491L-2.5978 273.934L7.7643 276.797L19.6468 280.153L33.246 284.09L48.7731 288.706L66.4488 294.109L86.4964 300.421L109.13 307.768L134.538 316.282L162.862 326.093L194.172 337.315L228.431 350.042L265.464 364.325L304.916 380.154L346.223 397.444L388.588 416.008L430.972 435.549L472.115 455.645L510.579 475.757L544.828 495.245L573.337 513.403L594.717 529.505L607.85 542.868L612 552.909L606.897 559.204L592.77 561.527L570.321 559.87L540.655 554.437L505.163 545.615L465.395 533.931L422.926 519.996L379.239 504.449L335.642 487.912L293.217 470.95L252.791 454.046L214.948 437.588L180.052 421.871L148.275 407.098L119.642 393.398L94.0688 380.831L71.3917 369.411L51.4005 359.111L33.8597 349.882L18.5258 341.656L5.15932 334.356L-6.46691 327.903L-16.5632 322.217L-25.3204 317.223L-32.909 312.848L-39.48 309.029L-45.1653 305.706L-50.0795 302.828L-54.3216 300.348L-57.9766 298.226L-61.1171 296.43L-63.8046 294.928L-66.0915 293.698L-68.0214 292.719L-69.6308 291.976L-70.9499 291.458L-72.0028 291.156L-72.8091 291.066L-73.3835 291.188L-73.7366 291.524L-73.8752 292.08L-73.8023 292.868L-73.5175 293.901L-73.0167 295.198L-72.2923 296.783L-71.333 298.686L-70.1235 300.943L-68.6444 303.597L-66.8722 306.7L-64.7779 310.312L-62.3281 314.505L-59.4833 319.362L-56.1979 324.982L-52.4206 331.479L-48.093 338.982L-43.1506 347.64L-37.5229 357.624L-31.1341 369.122L-23.9051 382.342L-15.7562 397.512L-6.61024 414.869L3.60097 434.658L14.9299 457.115L27.4043 482.452L41.0153 510.839L55.7052 542.367L71.3526 577.022L87.7598 614.643L104.64 654.884L121.613 697.181L138.202 740.723L153.848 784.451L167.935 827.073L179.821 867.116L188.891 903.009L194.61 933.195L196.577 956.265L194.574 971.088L188.59 976.925L178.835 973.508L165.718 961.068L149.811 940.306L131.791 912.315L112.384 878.466L92.2986 840.279L72.1816 799.291L52.5811 756.954L33.9276 714.543L16.5293 673.116L0.580316 633.49L-13.8254 596.247L-26.6741 561.756L-38.013 530.206L-47.931 501.643L-56.5434 476.006L-63.978 453.156L-70.3666 432.909L-75.8376 415.051L-80.5115 399.36L-84.4986 385.614L-87.8978 373.602L-90.7965 363.125L-93.2707 354.002L-95.3862 346.072L-97.1996 339.191L-98.7589 333.23L-100.105 328.08L-101.273 323.644L-102.293 319.841L-103.189 316.601L-103.983 313.863L-104.694 311.579L-105.338 309.707L-105.928 308.215L-106.476 307.075L-106.995 306.268L-107.494 305.78L-107.983 305.602L-108.471 305.731L-108.967 306.169L-109.482 306.925L-110.025 308.01L-110.608 309.445L-111.242 311.254L-111.941 313.47L-112.721 316.132L-113.599 319.289L-114.598 322.998L-115.74 327.328L-117.056 332.358L-118.579 338.183L-120.349 344.91L-122.413 352.664L-124.825 361.585L-127.652 371.835L-130.966 383.59L-134.853 397.046L-139.41 412.413L-144.746 429.91L-150.98 449.763L-158.24 472.184L-166.656 497.367L-176.358 525.457L-187.463 556.531L-200.067 590.563L-214.224 627.387L-229.931 666.667L-247.109 707.855L-265.58 750.174L-285.055 792.603L-305.124 833.899L-325.256 872.635L-344.817 907.278L-363.106 936.3L-379.397 958.295L-393 972.118L-403.323 977L-409.927 972.632L-412.569 959.203L-411.225 937.379L-406.081 908.237L-397.511 873.151L-386.034 833.663L-372.256 791.35L-356.815 747.706L-340.337 704.057L-323.391 661.501L-306.468 620.888L-289.964 582.821L-274.18 547.679L-259.328 515.649L-245.539 486.766L-232.882 460.952L-221.372 438.05L-210.986 417.852L-201.674 400.124L-193.372 384.622L-186.002 371.106L-179.484 359.348L-173.741 349.137L-168.694 340.279L-164.273 332.603L-160.412 325.955L-157.052 320.203L-154.14 315.231L-151.63 310.939L-149.482 307.239L-147.66 304.06L-146.136 301.338L-144.885 299.021L-143.887 297.064L-143.126 295.43L-142.59 294.089L-142.271 293.015L-142.165 292.19L-142.27 291.598L-142.588 291.227L-143.127 291.072L-143.895 291.128L-144.908 291.395L-146.183 291.879L-147.744 292.585L-149.621 293.525L-151.848 294.714L-154.469 296.171L-157.533 297.919L-161.102 299.987L-165.245 302.407L-170.046 305.219L-175.601 308.468L-182.023 312.204L-189.44 316.486L-198 321.377L-207.87 326.948L-219.239 333.274L-232.314 340.433L-247.319 348.507L-264.492 357.571L-284.076 367.696L-306.311 378.936L-331.41 391.319L-359.548 404.842L-390.822 419.451L-425.229 435.029L-462.621 451.386L-502.669 468.243L-544.825 485.226L-588.301 501.866L-632.056 517.611L-674.815 531.846L-715.117 543.931L-751.396 553.247L-782.089 559.25L-805.77 561.527L-821.281 559.843L-827.849 554.171L-825.168 544.703L-813.428 531.834L-793.294 516.124L-765.833 498.245L-732.399 478.92L-694.502 458.863L-653.686 438.725L-611.409 419.065L-568.966 400.321L-527.431 382.814L-487.64 366.743L-450.193 352.212L-415.476 339.24L-383.691 327.783L-354.893 317.755L-329.029 309.042L-305.965 301.518L-285.52 295.051L-267.481 289.511L-251.627 284.777L-237.735 280.739L-225.593 277.296L-215.001 274.36L-205.778 271.855L-197.759 269.712L-190.799 267.877L-184.77 266.299L-179.559 264.937L-175.07 263.755L-171.22 262.725L-167.937 261.82L-165.161 261.018L-162.843 260.301L-160.94 259.653L-159.418 259.059L-158.251 258.507L-157.419 257.987L-156.905 257.487L-156.703 256.997L-156.807 256.51L-157.221 256.014L-157.951 255.501L-159.009 254.96L-160.415 254.381L-162.194 253.752L-164.375 253.058L-167 252.286L-170.115 251.416L-173.778 250.427L-178.055 249.297L-183.026 247.996L-188.783 246.491L-195.434 244.743L-203.1 242.704L-211.923 240.321L-222.06 237.53L-233.687 234.258L-246.999 230.419L-262.205 225.919L-279.523 220.648L-299.178 214.49L-321.386 207.317L-346.341 198.997L-374.194 189.401L-405.028 178.41L-438.825 165.928L-475.435 151.894L-514.533 136.308L-555.592 119.241L-597.852 100.862L-640.313 81.4521L-681.746 61.4115L-720.738 41.2615L-755.762 21.6279L-785.283 3.20956L-807.882 -13.2678L-822.389 -27.1092L-828 -37.7122L-824.369 -44.6243L-811.643 -47.5863L-790.455 -46.555L-761.851 -41.7017L-727.185 -33.3873L-687.993 -22.1196L-645.851 -8.49978L-602.264 6.83296L-558.575 23.2515L-515.901 40.1802L-475.111 57.1222L-436.828 73.6732L-401.446 89.5244L-369.167 104.458L-340.037 118.335L-313.986 131.084L-290.86 142.686L-270.457 153.161L-252.542 162.556L-236.873 170.937L-223.209 178.379L-211.32 184.962L-200.993 190.765L-192.035 195.865L-184.27 200.334L-177.547 204.237L-171.728 207.635L-166.698 210.581L-162.355 213.122L-158.612 215.298L-155.394 217.144L-152.638 218.691L-150.29 219.963L-148.306 220.981L-146.648 221.76L-145.284 222.314L-144.191 222.65L-143.346 222.773L-142.736 222.685L-142.348 222.384L-142.175 221.863L-142.215 221.113L-142.465 220.121L-142.931 218.867L-143.62 217.33L-144.541 215.479L-145.709 213.281L-147.144 210.693L-148.867 207.666L-150.908 204.14L-153.299 200.045L-156.078 195.3L-159.29 189.808L-162.985 183.459L-167.221 176.126L-172.061 167.662L-177.575 157.902L-183.837 146.659L-190.927 133.727L-198.924 118.884L-207.906 101.891L-217.944 82.506L-229.092 60.4894L-241.383 35.6232L-254.816 7.73086L-269.34 -23.2946L-284.846 -57.458L-301.149 -94.6245L-317.977 -134.48L-334.965 -176.497L-351.65 -219.906L-367.487 -263.685L-381.865 -306.578L-394.144 -347.136L-403.701 -383.795L-409.984 -414.99L-412.569 -439.279L-411.204 -455.476L-405.846 -462.774L-396.669 -460.828L-384.053 -449.79L-368.547 -430.29L-350.816 -403.364L-331.581 -370.348L-311.558 -332.748L-291.406 -292.106L-271.692 -249.892L-252.864 -207.417L-235.25 -165.772L-219.061 -125.815L-204.407 -88.1621L-191.312 -53.2155L-179.738 -21.1908L-169.601 7.84602L-160.789 33.9417L-153.175 57.2237L-146.629 77.8717L-141.02 96.0952L-136.227 112.116L-132.137 126.157L-128.651 138.432L-125.678 149.142L-123.14 158.468L-120.972 166.578L-119.114 173.618L-117.517 179.717L-116.139 184.99L-114.945 189.533L-113.903 193.432L-112.989 196.758L-112.18 199.572L-111.457 201.925L-110.803 203.86L-110.206 205.411L-109.651 206.606L-109.129 207.465L-108.627 208.003L-108.138 208.23L-107.65 208.15L-107.156 207.761L-106.644 207.057L-106.106 206.025L-105.531 204.647L-104.906 202.9L-104.218 200.751L-103.452 198.163L-102.591 195.089L-101.613 191.472L-100.495 187.246L-99.209 182.333L-97.7217 176.642L-95.9942 170.067L-93.9806 162.485L-91.6273 153.76L-88.8716 143.733L-85.6408 132.23L-81.8511 119.059L-77.4074 104.011L-72.203 86.8677L-66.1203 67.4054L-59.033 45.4067L-50.8102 20.675L-41.3213 -6.94496L-30.4462 -37.5426L-18.0858 -71.11L-4.17794 -107.508L11.2854 -146.427L28.238 -187.357L46.5195 -229.558L65.8592 -272.048L85.8659 -313.615L106.027 -352.86L125.726 -388.259L144.266 -418.274L160.923 -441.473L174.997 -456.661L185.876 -463L193.094 -460.106L196.375 -448.087L195.658 -427.537L191.098 -399.475L183.043 -365.235L171.99 -326.342L158.535 -284.375L143.317 -240.849L126.964 -197.121L110.057 -154.328L93.1016 -113.359L76.5082 -74.856L60.5932 -39.2309L45.5818 -6.69898L31.6181 22.6824L18.7787 48.9761L7.08636 72.3289L-3.47615 92.9424L-12.9546 111.048L-21.4131 126.888L-28.9265 140.704L-35.5742 152.727L-41.4359 163.172L-46.5887 172.233L-51.1047 180.087L-55.0508 186.889L-58.4869 192.775L-61.4668 197.864L-64.038 202.259L-66.2415 206.048L-68.113 209.305L-69.6826 212.096L-70.9757 214.475L-72.0129 216.486L-72.8107 218.17L-73.3818 219.556L-73.7348 220.67L-73.8749 221.534L-73.8038 222.163L-73.5196 222.568L-73.0166 222.757L-72.2856 222.735L-71.3131 222.501L-70.0812 222.052L-68.5673 221.382L-66.7431 220.48L-64.5744 219.332L-62.0196 217.919L-59.0296 216.219L-55.5458 214.205L-51.4993 211.843L-46.8093 209.096L-41.3812 205.92L-35.1059 202.265L-27.8569 198.075L-19.4894 193.285L-9.83949 187.827L1.27752 181.627L14.0658 174.605L28.7474 166.683L45.5588 157.781L64.7433 147.829L86.5404 136.77L111.171 124.569L138.815 111.226L169.587 96.7842L203.501 81.3495L240.435 65.1002L280.09 48.3005L321.957 31.3089L365.286 14.5791L409.076 -1.3482L452.087 -15.8665L492.884 -28.3367L529.91 -38.1325L561.593 -44.6948L586.477 -47.5861L603.352 -46.5402L611.378 -41.4961L610.17 -32.6112L599.839 -20.2499L580.98 -4.94954L554.602 12.6315L522.02 31.7745L484.73 51.7613L444.278 71.9261L402.142 91.6952L359.647 110.609L317.905 128.33L277.79 144.638L239.939 159.418L204.77 172.637L172.51 184.331L143.238 194.579L116.914 203.493L93.4155 211.197L72.5666 217.824L54.1594 223.504L37.9722 228.358L23.7824 232.5L11.3752 236.031L0.549165 239.042L-8.88065 241.612L-17.081 243.808L-24.2005 245.689L-30.3701 247.305L-35.7044 248.699L-40.3024 249.907L-44.2494 250.96L-47.6184 251.883L-50.471 252.7L-52.8592 253.429L-54.8259 254.088L-56.4063 254.689L-57.6282 255.247L-58.5131 255.772L-59.0765 256.274L-59.3281 256.765L-59.3437 256.92Z" fill="#A7F0EB" fill-opacity="0.6"/>
<g id="Frame_4" clip-path="url(#clip4_0_1)">
<g id="Templates_2">
<g id="Modern">
<path id="Vector_2" d="M13.8917 30.237C9.46785 27.9897 5.04482 22.0649 2.63102 17.9788C0.218022 13.8927 5.29578 10.0616 8.26135 13.0755L11.4787 16.3443V2.86026C11.4787 2.10167 11.7753 1.37415 12.3032 0.837751C12.8312 0.301348 13.5472 0 14.2938 0C15.0405 0 15.7565 0.301348 16.2845 0.837751C16.8124 1.37415 17.109 2.10167 17.109 2.86026V10.6238C17.109 9.86524 17.4056 9.13772 17.9336 8.60132C18.4615 8.06491 19.1775 7.76356 19.9242 7.76356C20.6708 7.76356 21.3869 8.06491 21.9148 8.60132C22.4427 9.13772 22.7393 9.86524 22.7393 10.6238V11.8497C22.7393 11.0911 23.0359 10.3635 23.5639 9.82714C24.0918 9.29074 24.8079 8.98939 25.5545 8.98939C26.3011 8.98939 27.0172 9.29074 27.5451 9.82714C28.0731 10.3635 28.3697 11.0911 28.3697 11.8497V7.76356C28.3697 7.00498 28.6663 6.27746 29.1942 5.74106C29.7222 5.20465 30.4382 4.9033 31.1848 4.9033C31.9315 4.9033 32.6475 5.20465 33.1755 5.74106C33.7034 6.27746 34 7.00498 34 7.76356V21.3416C34 22.8919 33.6606 24.4381 32.7348 25.6704C31.694 27.0548 29.992 28.8919 27.5653 30.237C23.1415 32.6887 18.3155 32.4844 13.8917 30.237Z" stroke="black" stroke-width="4" stroke-linecap="round" stroke-linejoin="round"/>
</g>
</g>
</g>
</g>
</g>
</g>
</g>
</g>
<g id="Rectangle">
<mask id="path-3-inside-1_0_1" fill="white">
<rect x="-828" y="-463" width="2880" height="1440" rx="5"/>
</mask>
<rect x="-828" y="-463" width="2880" height="1440" rx="5" stroke="#42F5FF" stroke-width="18.368" mask="url(#path-3-inside-1_0_1)"/>
</g>
<g id="Rectangle_2">
<mask id="path-4-inside-2_0_1" fill="white">
<rect x="-828" y="-463" width="2880" height="1440" rx="5"/>
</mask>
<rect x="-828" y="-463" width="2880" height="1440" rx="5" stroke="#42F5FF" stroke-width="18.368" mask="url(#path-4-inside-2_0_1)"/>
</g>
<g id="Rectangle_3">
<mask id="path-5-inside-3_0_1" fill="white">
<rect x="-828" y="-463" width="2880" height="1440" rx="5"/>
</mask>
<rect x="-828" y="-463" width="2880" height="1440" rx="5" stroke="#42F5FF" stroke-width="18.368" mask="url(#path-5-inside-3_0_1)"/>
</g>
<g id="Rectangle_4">
<mask id="path-6-inside-4_0_1" fill="white">
<rect x="-828" y="-463" width="2880" height="1440" rx="5"/>
</mask>
<rect x="-828" y="-463" width="2880" height="1440" rx="5" stroke="#42F5FF" stroke-width="18.368" mask="url(#path-6-inside-4_0_1)"/>
</g>
<g id="Rectangle_5">
<mask id="path-7-inside-5_0_1" fill="white">
<rect x="-828" y="-463" width="2880" height="1440" rx="5"/>
</mask>
<rect x="-828" y="-463" width="2880" height="1440" rx="5" stroke="#42F5FF" stroke-width="18.368" mask="url(#path-7-inside-5_0_1)"/>
</g>
<g id="Rectangle_6">
<mask id="path-8-inside-6_0_1" fill="white">
<rect x="-828" y="-463" width="2880" height="1440" rx="5"/>
</mask>
<rect x="-828" y="-463" width="2880" height="1440" rx="5" stroke="#42F5FF" stroke-width="18.368" mask="url(#path-8-inside-6_0_1)"/>
</g>
<defs>
<clipPath id="clip0_0_1">
<rect width="1440" height="2700" fill="white" transform="translate(-828 -1169)"/>
</clipPath>
<clipPath id="clip1_0_1">
<rect width="1440" height="2700" fill="white" transform="translate(-828 -1169)"/>
</clipPath>
<clipPath id="clip2_0_1">
<rect width="1440" height="2634" fill="white" transform="translate(-828 -1103)"/>
</clipPath>
<clipPath id="clip3_0_1">
<rect width="1440" height="1800" fill="white" transform="translate(-828 -269)"/>
</clipPath>
<clipPath id="clip4_0_1">
<rect width="926" height="32" fill="white" transform="translate(-571)"/>
</clipPath>
</defs>
</svg>
