<svg width="32" height="32" viewBox="0 0 32 32" fill="none" xmlns="http://www.w3.org/2000/svg">
<g clip-path="url(#clip0_15_74)">
<path fill-rule="evenodd" clip-rule="evenodd" d="M21.6667 11.6667C21.6667 15.3487 18.682 18.3333 15 18.3333C11.318 18.3333 8.33337 15.3487 8.33337 11.6667C8.33337 7.98467 11.318 5 15 5C18.682 5 21.6667 7.98467 21.6667 11.6667ZM20.3334 11.6667C20.3334 13.0812 19.7715 14.4377 18.7713 15.4379C17.7711 16.4381 16.4145 17 15 17C13.5856 17 12.229 16.4381 11.2288 15.4379C10.2286 14.4377 9.66671 13.0812 9.66671 11.6667C9.66671 10.2522 10.2286 8.89562 11.2288 7.89543C12.229 6.89524 13.5856 6.33333 15 6.33333C16.4145 6.33333 17.7711 6.89524 18.7713 7.89543C19.7715 8.89562 20.3334 10.2522 20.3334 11.6667Z" fill="black"/>
<path d="M19.3334 19.6667C19.2624 19.6505 19.1881 19.659 19.1227 19.6908C19.0572 19.7225 19.0046 19.7756 18.9734 19.8413L16.3334 27.3813V25L15.95 22.3193C16.0724 22.2935 16.185 22.2339 16.2751 22.1471C16.3652 22.0603 16.429 21.95 16.4594 21.8287L16.7927 20.4953C16.8173 20.3971 16.8192 20.2945 16.7983 20.1954C16.7773 20.0963 16.7341 20.0033 16.6718 19.9235C16.6095 19.8436 16.5299 19.7789 16.4389 19.7344C16.3479 19.6899 16.248 19.6668 16.1467 19.6667H13.8547C13.7534 19.6667 13.6535 19.6898 13.5625 19.7342C13.4715 19.7786 13.3918 19.8432 13.3295 19.923C13.2671 20.0028 13.2238 20.0958 13.2028 20.1948C13.1817 20.2939 13.1835 20.3964 13.208 20.4947L13.5414 21.828C13.5716 21.9494 13.6354 22.0599 13.7254 22.1468C13.8155 22.2337 13.9282 22.2935 14.0507 22.3193L13.6667 25V26.7973L11.0267 19.8413C10.9955 19.7756 10.9428 19.7225 10.8774 19.6908C10.8119 19.659 10.7376 19.6505 10.6667 19.6667C10.4118 19.7282 10.1567 19.7886 9.90135 19.848C8.39335 20.2013 6.52935 20.6373 5.53869 21.288C4.36335 22.0593 3.66669 22.9687 3.66669 24V28.3333H26.3334V24C26.3334 22.9687 25.6367 22.06 24.4614 21.288C23.4707 20.6373 21.6067 20.2013 20.0987 19.848C19.83 19.7853 19.572 19.7253 19.3334 19.6667Z" fill="black"/>
</g>
<defs>
<clipPath id="clip0_15_74">
<rect width="32" height="32" fill="white"/>
</clipPath>
</defs>
</svg>
