<svg width="25" height="25" viewBox="0 0 25 25" fill="none" xmlns="http://www.w3.org/2000/svg">
<g id="ri:instagram-fill">
<path id="Vector" d="M13.5708 2.08441C14.3309 2.08149 15.0911 2.08913 15.851 2.10733L16.0531 2.11462C16.2864 2.12295 16.5166 2.13337 16.7948 2.14587C17.9031 2.19795 18.6593 2.37295 19.3229 2.63025C20.0104 2.89483 20.5896 3.25316 21.1687 3.83233C21.6983 4.35275 22.1081 4.98227 22.3698 5.67712C22.6271 6.34066 22.8021 7.09795 22.8541 8.20629C22.8666 8.48337 22.8771 8.71462 22.8854 8.94795L22.8916 9.15004C22.9101 9.90961 22.9181 10.6694 22.9156 11.4292L22.9166 12.2063V13.5709C22.9192 14.331 22.9112 15.0912 22.8927 15.8511L22.8864 16.0532C22.8781 16.2865 22.8677 16.5167 22.8552 16.7948C22.8031 17.9032 22.626 18.6594 22.3698 19.323C22.109 20.0185 21.699 20.6486 21.1687 21.1688C20.6478 21.6983 20.018 22.1081 19.3229 22.3698C18.6593 22.6271 17.9031 22.8021 16.7948 22.8542C16.5166 22.8667 16.2864 22.8771 16.0531 22.8855L15.851 22.8917C15.0911 22.9102 14.3309 22.9182 13.5708 22.9157L12.7937 22.9167H11.4302C10.67 22.9193 9.90989 22.9113 9.14997 22.8927L8.94789 22.8865C8.70061 22.8775 8.45338 22.8671 8.20622 22.8552C7.09789 22.8032 6.34164 22.6261 5.67705 22.3698C4.98193 22.1087 4.3523 21.6988 3.83226 21.1688C3.3021 20.6482 2.89187 20.0183 2.63018 19.323C2.37289 18.6594 2.19789 17.9032 2.1458 16.7948C2.1342 16.5477 2.12379 16.3004 2.11455 16.0532L2.10935 15.8511C2.09014 15.0912 2.08146 14.331 2.0833 13.5709V11.4292C2.0804 10.6694 2.08804 9.90962 2.10622 9.15004L2.11351 8.94795C2.12185 8.71462 2.13226 8.48337 2.14476 8.20629C2.19685 7.09691 2.37185 6.3417 2.62914 5.67712C2.89098 4.98193 3.30202 4.35258 3.8333 3.83337C4.35299 3.3029 4.98222 2.8923 5.67705 2.63025C6.34164 2.37295 7.09684 2.19795 8.20622 2.14587L8.94789 2.11462L9.14997 2.10941C9.90954 2.09022 10.6693 2.08154 11.4291 2.08337L13.5708 2.08441ZM12.5 7.29274C11.8099 7.28298 11.1247 7.41048 10.4843 7.66782C9.84392 7.92515 9.26106 8.3072 8.7696 8.79176C8.27814 9.27632 7.88789 9.85372 7.62152 10.4904C7.35515 11.1271 7.21798 11.8104 7.21798 12.5006C7.21798 13.1907 7.35515 13.874 7.62152 14.5107C7.88789 15.1474 8.27814 15.7248 8.7696 16.2094C9.26106 16.6939 9.84392 17.076 10.4843 17.3333C11.1247 17.5906 11.8099 17.7181 12.5 17.7084C13.8813 17.7084 15.2061 17.1596 16.1828 16.1829C17.1596 15.2061 17.7083 13.8814 17.7083 12.5C17.7083 11.1187 17.1596 9.79394 16.1828 8.81719C15.2061 7.84044 13.8813 7.29274 12.5 7.29274ZM12.5 9.37608C12.9151 9.36843 13.3276 9.44357 13.7133 9.59713C14.099 9.75068 14.4503 9.97956 14.7466 10.2704C15.0429 10.5612 15.2783 10.9082 15.439 11.291C15.5997 11.6738 15.6825 12.0848 15.6825 12.5C15.6826 12.9152 15.5999 13.3262 15.4394 13.7091C15.2788 14.092 15.0436 14.439 14.7474 14.73C14.4512 15.0209 14.1 15.2499 13.7143 15.4036C13.3286 15.5573 12.9161 15.6325 12.501 15.625C11.6722 15.625 10.8774 15.2958 10.2913 14.7097C9.70525 14.1237 9.37601 13.3288 9.37601 12.5C9.37601 11.6712 9.70525 10.8764 10.2913 10.2903C10.8774 9.70428 11.6722 9.37504 12.501 9.37504L12.5 9.37608ZM17.9687 5.73024C17.6327 5.74369 17.3149 5.88665 17.0819 6.12917C16.8488 6.3717 16.7187 6.69497 16.7187 7.03129C16.7187 7.3676 16.8488 7.69088 17.0819 7.9334C17.3149 8.17592 17.6327 8.31888 17.9687 8.33233C18.3141 8.33233 18.6452 8.19514 18.8894 7.95096C19.1336 7.70677 19.2708 7.37558 19.2708 7.03024C19.2708 6.68491 19.1336 6.35372 18.8894 6.10953C18.6452 5.86535 18.3141 5.72816 17.9687 5.72816V5.73024Z" fill="black"/>
</g>
</svg>
