<svg width="26" height="25" viewBox="0 0 26 25" fill="none" xmlns="http://www.w3.org/2000/svg">
<g id="ri:whatsapp-fill">
<path id="Vector" d="M13.0011 2.08337C18.9843 2.08337 23.8344 6.74692 23.8344 12.5C23.8344 18.2532 18.9843 22.9167 13.0011 22.9167C11.0866 22.9197 9.20578 22.4325 7.55191 21.5052L2.17207 22.9167L3.63674 17.7417C2.67159 16.151 2.16454 14.3417 2.16774 12.5C2.16774 6.74692 7.01782 2.08337 13.0011 2.08337ZM9.30907 7.60421L9.09241 7.61254C8.95214 7.62075 8.81505 7.65619 8.68941 7.71671C8.57189 7.7807 8.46461 7.86069 8.37091 7.95421C8.24091 8.07192 8.16724 8.174 8.08816 8.27296C7.68746 8.7739 7.47171 9.38891 7.47499 10.0209C7.47716 10.5313 7.61582 11.0282 7.83249 11.4927C8.27557 12.4323 9.00466 13.4271 9.96666 14.349C10.1985 14.5709 10.426 14.7938 10.6708 15.0011C11.8662 16.013 13.2906 16.7428 14.8308 17.1323L15.4462 17.223C15.6466 17.2334 15.847 17.2188 16.0485 17.2094C16.364 17.1938 16.6721 17.1116 16.9509 16.9688C17.0928 16.8985 17.2312 16.8221 17.3658 16.7396C17.3658 16.7396 17.4124 16.7105 17.5012 16.6459C17.6475 16.5417 17.7374 16.4677 17.8587 16.3459C17.9487 16.2563 18.0267 16.1511 18.0862 16.0313C18.1707 15.8615 18.2552 15.5375 18.2899 15.2677C18.3159 15.0615 18.3083 14.949 18.3051 14.8792C18.3007 14.7677 18.2043 14.6521 18.0992 14.6032L17.4687 14.3313C17.4687 14.3313 16.5262 13.9365 15.9499 13.6844C15.8896 13.6591 15.825 13.6446 15.7592 13.6417C15.6851 13.6344 15.6102 13.6424 15.5396 13.6652C15.469 13.688 15.4042 13.7251 15.3497 13.774C15.3443 13.7719 15.2717 13.8313 14.4885 14.7438C14.4435 14.8019 14.3816 14.8458 14.3106 14.8699C14.2396 14.894 14.1627 14.8973 14.0898 14.8792C14.0193 14.861 13.9501 14.838 13.8829 14.8105C13.7486 14.7563 13.702 14.7355 13.6099 14.698C12.9881 14.4371 12.4125 14.0846 11.9037 13.6532C11.7672 13.5386 11.6404 13.4136 11.5104 13.2927C11.0842 12.9003 10.7128 12.4563 10.4054 11.9719L10.3415 11.873C10.2956 11.8065 10.2585 11.7347 10.231 11.6594C10.1898 11.5063 10.2971 11.3834 10.2971 11.3834C10.2971 11.3834 10.5603 11.1063 10.6827 10.9563C10.8019 10.8105 10.9027 10.6688 10.9677 10.5677C11.0955 10.3698 11.1356 10.1667 11.0684 10.0094C10.7651 9.29692 10.4509 8.58754 10.1281 7.88337C10.0642 7.74379 9.87457 7.64379 9.70232 7.624C9.64382 7.61775 9.58532 7.6115 9.52682 7.60733C9.38134 7.60038 9.23555 7.60177 9.09024 7.6115L9.30799 7.60317L9.30907 7.60421Z" fill="black"/>
</g>
</svg>
