<svg width="32" height="32" viewBox="0 0 32 32" fill="none" xmlns="http://www.w3.org/2000/svg">
<g clip-path="url(#clip0_15_57)">
<path d="M10.4 19.2C10.1878 19.2 9.98434 19.1157 9.83431 18.9657C9.68428 18.8157 9.6 18.6122 9.6 18.4C9.6 18.1878 9.68428 17.9843 9.83431 17.8343C9.98434 17.6843 10.1878 17.6 10.4 17.6H21.6C21.8122 17.6 22.0157 17.6843 22.1657 17.8343C22.3157 17.9843 22.4 18.1878 22.4 18.4C22.4 18.6122 22.3157 18.8157 22.1657 18.9657C22.0157 19.1157 21.8122 19.2 21.6 19.2H10.4ZM10.4 24C10.1878 24 9.98434 23.9157 9.83431 23.7657C9.68428 23.6157 9.6 23.4122 9.6 23.2C9.6 22.9878 9.68428 22.7843 9.83431 22.6343C9.98434 22.4843 10.1878 22.4 10.4 22.4H21.6C21.8122 22.4 22.0157 22.4843 22.1657 22.6343C22.3157 22.7843 22.4 22.9878 22.4 23.2C22.4 23.4122 22.3157 23.6157 22.1657 23.7657C22.0157 23.9157 21.8122 24 21.6 24H10.4Z" fill="black"/>
<path fill-rule="evenodd" clip-rule="evenodd" d="M17.896 1.60001H7.2C6.56348 1.60001 5.95303 1.85286 5.50294 2.30295C5.05286 2.75304 4.8 3.36349 4.8 4.00001V28C4.8 28.6365 5.05286 29.247 5.50294 29.6971C5.95303 30.1471 6.56348 30.4 7.2 30.4H24.8C25.4365 30.4 26.047 30.1471 26.4971 29.6971C26.9471 29.247 27.2 28.6365 27.2 28V11.5232C27.1998 10.9224 26.9743 10.3434 26.568 9.90081L19.6656 2.37761C19.4407 2.1324 19.1672 1.93665 18.8625 1.80278C18.5579 1.66892 18.2288 1.59986 17.896 1.60001ZM6.4 4.00001C6.4 3.78783 6.48428 3.58435 6.63431 3.43432C6.78434 3.28429 6.98783 3.20001 7.2 3.20001H17.896C18.007 3.19988 18.1168 3.22287 18.2185 3.26749C18.3201 3.31211 18.4114 3.3774 18.4864 3.45921L25.3888 10.9824C25.5244 11.1299 25.5998 11.3229 25.6 11.5232V28C25.6 28.2122 25.5157 28.4157 25.3657 28.5657C25.2157 28.7157 25.0122 28.8 24.8 28.8H7.2C6.98783 28.8 6.78434 28.7157 6.63431 28.5657C6.48428 28.4157 6.4 28.2122 6.4 28V4.00001Z" fill="black"/>
<path d="M17.6 11.2H26.4C26.6122 11.2 26.8157 11.2843 26.9657 11.4343C27.1157 11.5844 27.2 11.7878 27.2 12C27.2 12.2122 27.1157 12.4157 26.9657 12.5657C26.8157 12.7157 26.6122 12.8 26.4 12.8H16.8C16.5878 12.8 16.3843 12.7157 16.2343 12.5657C16.0843 12.4157 16 12.2122 16 12V2.40001C16 2.18783 16.0843 1.98435 16.2343 1.83432C16.3843 1.68429 16.5878 1.60001 16.8 1.60001C17.0122 1.60001 17.2157 1.68429 17.3657 1.83432C17.5157 1.98435 17.6 2.18783 17.6 2.40001V11.2Z" fill="black"/>
</g>
<defs>
<clipPath id="clip0_15_57">
<rect width="32" height="32" fill="white"/>
</clipPath>
</defs>
</svg>
