<svg width="90" height="90" viewBox="0 0 90 90" fill="none" xmlns="http://www.w3.org/2000/svg">
<g id="skill-icons:instagram" clip-path="url(#clip0_4_815)" filter="url(#filter0_d_4_815)">
<g id="Group">
<path id="Vector" d="M60.9375 15H29.0625C21.296 15 15 21.296 15 29.0625V60.9375C15 68.704 21.296 75 29.0625 75H60.9375C68.704 75 75 68.704 75 60.9375V29.0625C75 21.296 68.704 15 60.9375 15Z" fill="url(#paint0_radial_4_815)"/>
<path id="Vector_2" d="M60.9375 15H29.0625C21.296 15 15 21.296 15 29.0625V60.9375C15 68.704 21.296 75 29.0625 75H60.9375C68.704 75 75 68.704 75 60.9375V29.0625C75 21.296 68.704 15 60.9375 15Z" fill="url(#paint1_radial_4_815)"/>
<path id="Vector_3" d="M45.0021 21.5625C38.637 21.5625 37.838 21.5904 35.3381 21.7041C32.843 21.8184 31.1398 22.2134 29.6496 22.793C28.1079 23.3916 26.8003 24.1924 25.4977 25.4955C24.1938 26.7984 23.393 28.106 22.7925 29.647C22.2113 31.1377 21.8159 32.8416 21.7036 35.3355C21.5918 37.8356 21.5625 38.6348 21.5625 45.0002C21.5625 51.3656 21.5906 52.162 21.7041 54.6619C21.8189 57.157 22.2138 58.8602 22.793 60.3504C23.392 61.8921 24.1929 63.1997 25.496 64.5023C26.7984 65.8062 28.106 66.6089 29.6466 67.2075C31.1379 67.7871 32.8413 68.182 35.336 68.2964C37.8361 68.4101 38.6344 68.438 44.9993 68.438C51.3652 68.438 52.1616 68.4101 54.6614 68.2964C57.1566 68.182 58.8616 67.7871 60.353 67.2075C61.894 66.6089 63.1997 65.8062 64.5019 64.5023C65.8057 63.1997 66.6063 61.8921 67.207 60.3511C67.7831 58.8602 68.1787 57.1566 68.2959 54.6623C68.4082 52.1625 68.4375 51.3656 68.4375 45.0002C68.4375 38.6348 68.4082 37.8361 68.2959 35.336C68.1787 32.8409 67.7831 31.1379 67.207 29.6477C66.6063 28.106 65.8057 26.7984 64.5019 25.4955C63.1983 24.192 61.8945 23.3911 60.3516 22.7932C58.8574 22.2134 57.1533 21.8182 54.6581 21.7041C52.158 21.5904 51.3621 21.5625 44.9948 21.5625H45.0021ZM42.8995 25.7862C43.5237 25.7852 44.22 25.7862 45.0021 25.7862C51.2602 25.7862 52.0017 25.8087 54.473 25.9209C56.7581 26.0255 57.9984 26.4073 58.8246 26.7281C59.9184 27.1528 60.6982 27.6607 61.518 28.4813C62.3384 29.3016 62.846 30.0827 63.2719 31.1766C63.5927 32.0016 63.975 33.2419 64.0791 35.527C64.1913 37.9978 64.2157 38.7398 64.2157 44.9948C64.2157 51.2498 64.1913 51.9921 64.0791 54.4627C63.9745 56.7478 63.5927 57.9881 63.2719 58.8134C62.8472 59.9072 62.3384 60.686 61.518 61.5059C60.6977 62.3262 59.9189 62.8338 58.8246 63.2588C57.9994 63.581 56.7581 63.9619 54.473 64.0664C52.0022 64.1787 51.2602 64.203 45.0021 64.203C38.7438 64.203 38.002 64.1787 35.5315 64.0664C33.2463 63.9609 32.006 63.5791 31.1791 63.2583C30.0855 62.8334 29.3041 62.3257 28.4838 61.5054C27.6635 60.6851 27.1559 59.9058 26.73 58.8115C26.4091 57.9863 26.0269 56.7459 25.9228 54.4608C25.8105 51.99 25.788 51.248 25.788 44.989C25.788 38.7302 25.8105 37.992 25.9228 35.5212C26.0273 33.236 26.4091 31.9957 26.73 31.1695C27.1549 30.0757 27.6635 29.2945 28.4841 28.4742C29.3044 27.6539 30.0855 27.146 31.1794 26.7204C32.0055 26.3981 33.2463 26.0173 35.5315 25.9123C37.6936 25.8145 38.5315 25.7852 42.8995 25.7803V25.7862ZM57.5131 29.6777C55.9603 29.6777 54.7006 30.9363 54.7006 32.4893C54.7006 34.042 55.9603 35.3018 57.5131 35.3018C59.0658 35.3018 60.3256 34.042 60.3256 32.4893C60.3256 30.9366 59.0658 29.6768 57.5131 29.6768V29.6777ZM45.0021 32.9639C38.3552 32.9639 32.966 38.3531 32.966 45.0002C32.966 51.6473 38.3552 57.034 45.0021 57.034C51.6492 57.034 57.0366 51.6473 57.0366 45.0002C57.0366 38.3534 51.6488 32.9639 45.0016 32.9639H45.0021ZM45.0021 37.1876C49.3167 37.1876 52.8148 40.6852 52.8148 45.0002C52.8148 49.3148 49.3167 52.8129 45.0021 52.8129C40.6873 52.8129 37.1897 49.3148 37.1897 45.0002C37.1897 40.6852 40.6873 37.1876 45.0021 37.1876Z" fill="white"/>
</g>
</g>
<defs>
<filter id="filter0_d_4_815" x="0" y="0" width="90" height="90" filterUnits="userSpaceOnUse" color-interpolation-filters="sRGB">
<feFlood flood-opacity="0" result="BackgroundImageFix"/>
<feColorMatrix in="SourceAlpha" type="matrix" values="0 0 0 0 0 0 0 0 0 0 0 0 0 0 0 0 0 0 127 0" result="hardAlpha"/>
<feOffset/>
<feGaussianBlur stdDeviation="7.5"/>
<feComposite in2="hardAlpha" operator="out"/>
<feColorMatrix type="matrix" values="0 0 0 0 0.784314 0 0 0 0 0.215686 0 0 0 0 0.670588 0 0 0 0.5 0"/>
<feBlend mode="normal" in2="BackgroundImageFix" result="effect1_dropShadow_4_815"/>
<feBlend mode="normal" in="SourceGraphic" in2="effect1_dropShadow_4_815" result="shape"/>
</filter>
<radialGradient id="paint0_radial_4_815" cx="0" cy="0" r="1" gradientUnits="userSpaceOnUse" gradientTransform="translate(30.9375 79.6212) rotate(-90) scale(59.4645 55.3066)">
<stop stop-color="#FFDD55"/>
<stop offset="0.1" stop-color="#FFDD55"/>
<stop offset="0.5" stop-color="#FF543E"/>
<stop offset="1" stop-color="#C837AB"/>
</radialGradient>
<radialGradient id="paint1_radial_4_815" cx="0" cy="0" r="1" gradientUnits="userSpaceOnUse" gradientTransform="translate(4.94977 19.3221) rotate(78.681) scale(26.5809 109.567)">
<stop stop-color="#3771C8"/>
<stop offset="0.128" stop-color="#3771C8"/>
<stop offset="1" stop-color="#6600FF" stop-opacity="0"/>
</radialGradient>
<clipPath id="clip0_4_815">
<rect width="60" height="60" fill="white" transform="translate(15 15)"/>
</clipPath>
</defs>
</svg>
